# xmcd
#
# Track frame offsets:
#	150
#	16606
#	30328
#	41747
#	57877
#	75425
#	88435
#	105269
#	122486
#	135689
#	149735
#	166462
#	176954
#	191559
#	204953
#
# Disc length: 2888 seconds
#
# Revision: 1
# Processed by: cddbd v1.5.2PL0 Copyright (c) Steve Scherf et al.
# Submitted via: audiograbber 1.83.01
#
DISCID=c50b460f
DTITLE=Various Artist - Classic Country - 1978-1980 [Disc 2]
DYEAR=2001
DGENRE=Country
TTITLE0=Charlie Daniels Band - Devil Went Down To Georgia
TTITLE1=Olivia Newton-John - Jolene
TTITLE2=Waylon and Willie - Mamas Don't Let Your Babies Grow Up To Be Cowboys
TTITLE3=Willie Nelson - Blue Skies
TTITLE4=The Dirt Band - An American Dream
TTITLE5=Dr Hook - Sharing The Night Together
TTITLE6=Anne Kirkpatrick - Grievous Angel
TTITLE7=Oak Ridge Boys - Easy
TTITLE8=Crystal Gayle - Talking In Your Sleep
TTITLE9=Barbara Mandrell - (If Lovin' You Is Wrong) I Don't Want To Be Right
TTITLE10=J.D. Souther - You're Only Lonely
TTITLE11=George Jones and Johnny Paycheck - Mabellene
TTITLE12=Dan Fogelberg - Longer
TTITLE13=Waylon Jennings - Amanda
TTITLE14=Slim Dusty - Duncan
EXTD=
EXTT0=
EXTT1=
EXTT2=
EXTT3=
EXTT4=
EXTT5=
EXTT6=
EXTT7=
EXTT8=
EXTT9=
EXTT10=
EXTT11=
EXTT12=
EXTT13=
EXTT14=
PLAYORDER=
